<svg width="96" height="96" viewBox="0 0 96 96" fill="none" xmlns="http://www.w3.org/2000/svg">
<path d="M32.6393 43.1103C40.3075 43.1103 46.5445 33.4426 46.5445 21.5561C46.5445 9.67057 40.3072 0 32.6393 0C24.9733 0 18.7356 9.67029 18.7356 21.5561C18.7356 33.4426 24.9733 43.1103 32.6393 43.1103ZM73.8828 64.0775C73.5976 63.6287 73.3242 63.2055 73.1781 62.8417C70.0689 55.1544 61.5461 46.0918 47.7384 45.8664L47.2071 45.863C33.6115 45.863 25.1522 54.4459 21.7677 62.4816C21.6509 62.7564 21.3937 63.1131 21.1213 63.4903C20.7989 63.9323 20.48 64.3845 20.2074 64.8759C17.3482 70.0133 15.8905 75.7976 16.1056 81.1619C16.331 86.857 18.3953 91.4313 21.9082 94.0408C23.3276 95.0939 24.8592 95.6245 26.466 95.6245C29.7794 95.6245 32.813 93.469 36.3284 90.9723C38.5635 89.3812 40.8722 87.7395 43.4366 86.5108C43.724 86.4013 44.9017 86.2342 46.8277 86.2342C49.1179 86.2342 50.7627 86.4696 51.1141 86.6097C53.6174 87.8861 55.8158 89.5605 57.9421 91.1767C61.2019 93.6582 64.2798 96 67.6193 96C69.0524 96 70.4415 95.5631 71.7521 94.7031C78.9822 89.9584 80.3595 76.9411 74.8241 65.6868C74.5463 65.122 74.2153 64.5948 73.8828 64.0775ZM62.2066 43.1103C69.8711 43.1103 76.1096 33.4426 76.1096 21.5561C76.1096 9.67057 69.8711 0 62.2066 0C54.5377 0 48.3007 9.67029 48.3007 21.5561C48.3007 33.4426 54.5377 43.1103 62.2066 43.1103ZM85.0421 32.0422C78.8964 32.0422 74.0866 39.4039 74.0866 48.8022C74.0866 58.1962 78.8993 65.5589 85.0421 65.5589C91.1843 65.5589 96 58.1962 96 48.8022C96 39.4042 91.1873 32.0422 85.0421 32.0422ZM21.9124 48.8022C21.9124 39.4042 17.0997 32.0422 10.9567 32.0422C4.81346 32.0422 0 39.4042 0 48.8022C0 58.1962 4.81346 65.5589 10.9567 65.5589C17.1 65.5589 21.9124 58.1962 21.9124 48.8022Z" fill="#F4A201"/>
</svg>
