<?xml version="1.0" standalone="no"?>
<!DOCTYPE svg PUBLIC "-//W3C//DTD SVG 20010904//EN"
 "http://www.w3.org/TR/2001/REC-SVG-20010904/DTD/svg10.dtd">
<svg version="1.0" xmlns="http://www.w3.org/2000/svg"
 width="700.000000pt" height="700.000000pt" viewBox="0 0 700.000000 700.000000"
 preserveAspectRatio="xMidYMid meet">
<metadata>
Created by potrace 1.14, written by Peter Selinger 2001-2017
</metadata>
<g transform="translate(0.000000,700.000000) scale(0.100000,-0.100000)"
fill="#000000" stroke="none">
<path d="M2245 6986 c-281 -66 -514 -281 -679 -627 -135 -282 -196 -575 -196
-938 0 -650 259 -1232 650 -1461 148 -86 329 -120 482 -91 415 81 746 531 859
1166 27 151 37 473 20 637 -28 265 -91 491 -201 713 -148 299 -359 506 -595
581 -99 32 -250 41 -340 20z"/>
<path d="M4395 6984 c-365 -82 -676 -466 -805 -996 -48 -197 -64 -330 -64
-553 0 -110 6 -243 12 -295 77 -579 340 -1038 697 -1210 103 -50 187 -70 301
-70 475 -1 876 498 990 1230 25 161 25 510 1 670 -62 398 -203 726 -411 957
-107 118 -271 223 -401 258 -88 24 -236 28 -320 9z"/>
<path d="M655 4645 c-289 -82 -529 -402 -615 -817 -98 -475 -9 -985 227 -1304
298 -400 759 -404 1056 -8 440 586 333 1688 -198 2043 -105 70 -177 92 -310
97 -75 2 -126 -1 -160 -11z"/>
<path d="M6061 4644 c-247 -66 -449 -288 -564 -620 -147 -421 -119 -950 69
-1330 270 -543 801 -632 1148 -193 319 403 380 1145 136 1656 -124 261 -304
434 -510 488 -69 19 -209 18 -279 -1z"/>
<path d="M3340 3654 c-427 -21 -814 -161 -1140 -412 -233 -180 -463 -469 -584
-734 -18 -40 -63 -119 -100 -175 -237 -362 -375 -904 -336 -1323 34 -367 162
-653 371 -829 208 -175 429 -197 695 -70 80 38 223 131 565 367 190 132 334
211 405 222 78 13 318 13 424 -1 78 -9 93 -15 200 -79 64 -37 217 -144 340
-236 351 -261 455 -323 614 -364 181 -46 337 -8 503 124 187 149 318 394 379
706 21 112 30 414 15 550 -34 316 -158 701 -294 913 -21 32 -63 113 -95 180
-299 627 -873 1049 -1552 1140 -122 17 -303 26 -410 21z"/>
</g>
</svg>
